<svg xmlns="http://www.w3.org/2000/svg" viewBox="0 0 273.31 282.28"><defs><style>.cls-1{fill:#eecd9a;}.cls-2{fill:#b9802c;}.cls-3{fill:#6f4d1b;}.cls-4{fill:#946723;}.cls-5{fill:#de9a35;}</style></defs><title>Canasta</title><g id="Capa_2" data-name="Capa 2"><g id="Anteriores"><path class="cls-1" d="M272.66,77.37c-4.56-27.7-31.89-11.45-56.36-34.67S193.67,5.5,178.56,1c-15.81-4.68-27.28,8-45.19,13.91,1.66-.07,3.35-.11,5.07-.09,86.93.88,91.65,96.34,92.67,129,.66,21.23.31,56.4-3.55,80.54,14.94-15.8,30.76-10.84,36.49-28.58,6.2-19.18-7.72-24.26-5.6-61.06C259.94,109,276.81,102.63,272.66,77.37Z"/><path class="cls-1" d="M111.76,255.68c19.85,7.05,28.11,27.84,69,26.55,19-.6,26.11-15.18,32-30.07C193.43,258.8,147.64,258.72,111.76,255.68Z"/><path class="cls-1" d="M45.39,148.07c-.69-19.23,4.82-112.23,69.07-130.21C86.88,17.65,64.77,4,50.82,20.29c-15.6,18.29-3.69,49.08-14.73,65.23s-34.5,23.63-36,43.86c-2,26.54,30,23.67,31.59,50.27s-13.88,51.82,0,65.71c18.82,18.9,39.61,9.75,60.17,8.19A175,175,0,0,1,71.92,250C47.11,243.45,46.28,173.05,45.39,148.07Z"/><path class="cls-1" d="M213.92,134.66c0-.69-.06-1.47-.11-2.32s-.1-1.77-.17-2.77-.15-2.06-.25-3.19-.2-2.32-.33-3.56c-.2-1.87-.43-3.87-.71-6-.19-1.4-.39-2.85-.62-4.33-.46-3-1-6.09-1.68-9.31-.16-.8-.34-1.61-.52-2.43-.54-2.45-1.14-5-1.82-7.48s-1.43-5.09-2.26-7.64c-.55-1.71-1.14-3.41-1.77-5.12s-1.29-3.39-2-5.08a96.4,96.4,0,0,0-10.56-19.2,68.6,68.6,0,0,0-11-12.08q-2.09-1.78-4.33-3.37a55.31,55.31,0,0,0-9.73-5.5,56.37,56.37,0,0,0-11.26-3.59c-1-.21-2-.4-3.06-.56a69.86,69.86,0,0,0-13.32-.74,65.35,65.35,0,0,0-29.88,8c-.84.47-1.65,1-2.46,1.45-1.38.86-2.7,1.77-4,2.72-1,.71-1.91,1.43-2.82,2.19-1.43,1.17-2.8,2.41-4.11,3.69-.72.7-1.42,1.42-2.1,2.15-1.7,1.8-3.29,3.69-4.8,5.64l-.79,1c-1.3,1.74-2.52,3.53-3.68,5.36-.37.59-.74,1.18-1.09,1.77-.46.75-.9,1.51-1.33,2.27C63.59,98.2,63.59,138.62,63.59,138.62a297.54,297.54,0,0,1,74.83-8.44c46.9.64,75.6,9.28,75.6,8.4v-.12c0-.2,0-.63,0-1.27S214,135.7,213.92,134.66Z"/><path class="cls-2" d="M175.79,40.82q2.25,1.59,4.33,3.37Q178,42.41,175.79,40.82Z"/><path class="cls-2" d="M205.45,85.67c.83,2.55,1.58,5.11,2.26,7.64C207,90.78,206.28,88.22,205.45,85.67Z"/><path class="cls-2" d="M191.12,56.27a96.4,96.4,0,0,1,10.56,19.2A96.4,96.4,0,0,0,191.12,56.27Z"/><path class="cls-2" d="M201.68,75.47c.71,1.69,1.37,3.38,2,5.08C203.05,78.85,202.39,77.16,201.68,75.47Z"/><path class="cls-2" d="M212.35,116.86c.28,2.09.51,4.09.71,6C212.86,121,212.63,119,212.35,116.86Z"/><path class="cls-2" d="M191.12,56.27a68.6,68.6,0,0,0-11-12.08A68.6,68.6,0,0,1,191.12,56.27Z"/><path class="cls-2" d="M214,138.46c0-.2,0-.63,0-1.27C214,137.83,214,138.26,214,138.46Z"/><path class="cls-2" d="M213.92,134.66c.05,1,.07,1.89.08,2.53C214,136.55,214,135.7,213.92,134.66Z"/><path class="cls-2" d="M210.05,103.22c.67,3.22,1.22,6.35,1.68,9.31C211.27,109.57,210.72,106.44,210.05,103.22Z"/><path class="cls-2" d="M166.06,35.32a55.31,55.31,0,0,1,9.73,5.5A55.31,55.31,0,0,0,166.06,35.32Z"/><path class="cls-2" d="M213.39,126.38c.1,1.13.18,2.2.25,3.19C213.57,128.58,213.49,127.51,213.39,126.38Z"/><path class="cls-2" d="M213.81,132.34c.05.85.09,1.63.11,2.32C213.9,134,213.86,133.19,213.81,132.34Z"/><path class="cls-2" d="M207.71,93.31c.68,2.52,1.28,5,1.82,7.48C209,98.34,208.39,95.83,207.71,93.31Z"/><path class="cls-2" d="M82.7,64.49c.35-.59.72-1.18,1.09-1.77C83.42,63.31,83.05,63.9,82.7,64.49Z"/><path class="cls-2" d="M102.09,42.64c1.29-1,2.61-1.86,4-2.72C104.7,40.78,103.38,41.69,102.09,42.64Z"/><path class="cls-2" d="M231.11,143.88c-1-32.7-5.74-128.16-92.67-129-1.72,0-3.41,0-5.07.09a82.82,82.82,0,0,0-18.91,2.93c-64.25,18-69.76,111-69.07,130.21.89,25,1.72,95.38,26.53,101.88a175,175,0,0,0,19.89,3.6c6.06.8,12.81,1.53,20,2.13,35.88,3,81.67,3.12,101.06-3.52a28.42,28.42,0,0,0,5-2.21c4.52-2.66,7.63-12.48,9.71-25.53C231.42,200.28,231.77,165.11,231.11,143.88ZM61.69,125.56c.91-12.29,2.73-38.25,16.39-61.47s29.6-31.91,38.7-33.71,27.32-7.76,49.63,0,33.69,29.16,36,34.62,13.65,36.43,14.11,50.54-.12,23.31-2.47,23v0c0,.88-28.7-7.76-75.6-8.4a297.54,297.54,0,0,0-74.83,8.44s0-40.42,17.78-71.86C63.59,98.2,63.59,138.62,63.59,138.62S60.78,137.85,61.69,125.56ZM84.81,247.48c-6.08,0-14.83-3.08-19.19-7.44s-11.21-28.22-8.49-23.44c0,0,5.16,10.72,7.49,15.12C71.14,244,87.63,247.51,84.81,247.48ZM135,219.79c-3.61,0-32.17-25.44-35.64-36.72-3.2-10.42-27.8-27.7-28.55-33.64,0,0,0-.07,0-.11l-.1-.06c-.3-.17-.58-.34-.84-.52l-.1-.06c-.23-.15-.44-.3-.64-.45l-.19-.14c-.19-.15-.37-.29-.53-.43l-.08-.07c-.18-.16-.34-.32-.49-.48l-.11-.12-.3-.37a.76.76,0,0,0-.08-.11,3.28,3.28,0,0,1-.25-.44.3.3,0,0,1,0-.08,2.91,2.91,0,0,1-.12-.35.43.43,0,0,1,0-.11,1.87,1.87,0,0,1,0-.4c.32-5,36.58-10.7,70-10.9,34.24-.21,72.53,5.68,72.5,10.9a1,1,0,0,1-.06.28l0,.09c0,.07-.08.15-.14.24a.47.47,0,0,1-.06.09,4.11,4.11,0,0,1-.29.35l0,0c-.11.12-.24.23-.38.36l-.14.12-.41.32-.15.11-.66.46-.12.07-.66.4-.26.15-.7.39-.23.12-1,.52-.24.11-.92.43-.37.16c-.33.14-.67.29-1,.43l-.28.12L200,151c.7,2.67-25.87,28-37.14,42.36S138.61,219.79,135,219.79Zm46.45,31.05c-2.29-.43,20.47-3.12,28-15.71s12.47-29.91,13.93-31.48c2.13-2.29-2,32-7.25,39.47C210.33,251.34,183.74,251.27,181.46,250.84Z"/><path class="cls-2" d="M87.47,57.36l.79-1Z"/><path class="cls-2" d="M93.06,50.67c.68-.73,1.38-1.45,2.1-2.15C94.44,49.22,93.74,49.94,93.06,50.67Z"/><path class="cls-3" d="M67.12,146.07a.3.3,0,0,1,0-.08A.3.3,0,0,0,67.12,146.07Z"/><path class="cls-3" d="M67,145.64a.43.43,0,0,1,0-.11A.43.43,0,0,0,67,145.64Z"/><path class="cls-3" d="M209.37,145.41l0,.09Z"/><path class="cls-3" d="M70.73,149.26l.1.06h0Z"/><path class="cls-3" d="M67.45,146.62a.76.76,0,0,0-.08-.11A.76.76,0,0,1,67.45,146.62Z"/><path class="cls-3" d="M69.89,148.74l-.1-.06Z"/><path class="cls-3" d="M79.77,150.12a246.14,246.14,0,0,0,42.1,6.24c10.82.62,45.34.67,56.78-2,3-.69,12.83-3.67,18-4.1-8.92-1.85-34.62-6.67-60-6.73C112.4,143.49,89.47,148,79.77,150.12Z"/><path class="cls-3" d="M69.15,148.23l-.19-.14Z"/><path class="cls-3" d="M68.43,147.66l-.08-.07Z"/><path class="cls-3" d="M67.86,147.11l-.11-.12Z"/><path class="cls-3" d="M204.07,149.24l-.24.11Z"/><path class="cls-3" d="M206.28,148.06l-.26.15Z"/><path class="cls-3" d="M207.06,147.59l-.12.07Z"/><path class="cls-3" d="M207.87,147l-.15.11Z"/><path class="cls-3" d="M205.32,148.6l-.23.12Z"/><path class="cls-3" d="M208.42,146.58l-.14.12Z"/><path class="cls-3" d="M208.84,146.18l0,0Z"/><path class="cls-3" d="M202.91,149.78l-.37.16Z"/><path class="cls-3" d="M209.19,145.74a.47.47,0,0,1-.06.09A.47.47,0,0,0,209.19,145.74Z"/><path class="cls-3" d="M201.51,150.37l-.28.12Z"/><path class="cls-4" d="M71.79,148.44c1.51.18,4.22.83,8,1.68,9.7-2.16,32.63-6.63,56.88-6.57,25.42.06,51.12,4.88,60,6.73,1.84-.15,3.11,0,3.29.71l1.25-.5.28-.12c.36-.14.7-.29,1-.43l.37-.16.92-.43.24-.11,1-.52.23-.12.7-.39.26-.15.66-.4.12-.07.66-.46.15-.11.41-.32.14-.12c.14-.13.27-.24.38-.36l0,0a4.11,4.11,0,0,0,.29-.35.47.47,0,0,0,.06-.09c.06-.09.1-.17.14-.24l0-.09a1,1,0,0,0,.06-.28c0-5.22-38.26-11.11-72.5-10.9-33.45.2-69.71,5.91-70,10.9a1.87,1.87,0,0,0,0,.4.43.43,0,0,0,0,.11,2.91,2.91,0,0,0,.12.35.3.3,0,0,0,0,.08,3.28,3.28,0,0,0,.25.44.76.76,0,0,1,.08.11l.3.37.11.12c.15.16.31.32.49.48l.08.07c.16.14.34.28.53.43l.19.14c.2.15.41.3.64.45l.1.06c.26.18.54.35.84.52l.1.06A.87.87,0,0,1,71.79,148.44Z"/><path class="cls-5" d="M196.69,150.28c-5.21.43-15,3.41-18,4.1-11.44,2.65-46,2.6-56.78,2a246.14,246.14,0,0,1-42.1-6.24c-3.76-.85-6.47-1.5-8-1.68a.87.87,0,0,0-1,.88h0s0,.08,0,.11c.75,5.94,13.41,27.18,24.34,39.43s32.48,30.93,39.85,30.93,21.17-12.35,33.83-25.44C185.62,177,200.68,153.66,200,151,199.8,150.29,198.53,150.13,196.69,150.28Z"/><path class="cls-4" d="M216.11,243.12c5.22-7.43,9.38-41.76,7.25-39.47-1.46,1.57-6.43,18.88-13.93,31.48s-30.26,15.28-28,15.71S210.33,251.34,216.11,243.12Z"/><path class="cls-4" d="M64.62,231.72c-2.33-4.4-7.49-15.12-7.49-15.12-2.72-4.78,4.13,19.08,8.49,23.44s13.11,7.39,19.19,7.44C87.63,247.51,71.14,244,64.62,231.72Z"/><path class="cls-4" d="M63.59,138.62s0-40.42,17.78-71.86c.43-.76.87-1.52,1.33-2.27.35-.59.72-1.18,1.09-1.77,1.16-1.83,2.38-3.62,3.68-5.36l.79-1c1.51-2,3.1-3.84,4.8-5.64.68-.73,1.38-1.45,2.1-2.15,1.31-1.28,2.68-2.52,4.11-3.69.91-.76,1.86-1.48,2.82-2.19,1.29-1,2.61-1.86,4-2.72.81-.5,1.62-1,2.46-1.45a65.35,65.35,0,0,1,29.88-8,69.86,69.86,0,0,1,13.32.74c1,.16,2.06.35,3.06.56a56.37,56.37,0,0,1,11.26,3.59,55.31,55.31,0,0,1,9.73,5.5q2.25,1.59,4.33,3.37a68.6,68.6,0,0,1,11,12.08,96.4,96.4,0,0,1,10.56,19.2c.71,1.69,1.37,3.38,2,5.08s1.22,3.41,1.77,5.12c.83,2.55,1.58,5.11,2.26,7.64s1.28,5,1.82,7.48c.18.82.36,1.63.52,2.43.67,3.22,1.22,6.35,1.68,9.31.23,1.48.43,2.93.62,4.33.28,2.09.51,4.09.71,6,.13,1.24.24,2.43.33,3.56s.18,2.2.25,3.19.13,1.92.17,2.77.09,1.63.11,2.32c.05,1,.07,1.89.08,2.53s0,1.07,0,1.27v.12c2.35.27,2.93-8.92,2.47-23S204.65,70.47,202.38,65s-13.66-26.86-36-34.62-40.52-1.8-49.63,0-25,10.49-38.7,33.71S62.6,113.27,61.69,125.56,63.59,138.62,63.59,138.62Z"/></g></g></svg>