<svg xmlns="http://www.w3.org/2000/svg" viewBox="0 0 113.57 141.28"><defs><style>.cls-1{fill:#b9802c;}.cls-2{fill:#946723;}.cls-3{fill:#eecd9a;}.cls-4{fill:#6f4d1b;}</style></defs><title>Olla 2</title><g id="Capa_2" data-name="Capa 2"><g id="Capa_5" data-name="Capa 5"><path class="cls-1" d="M3.73,61.68a8.31,8.31,0,0,1,.66,4.64C4.23,68.24.23,103.43,0,110.17c-.19,6.23.92,10.38,4.09,13.54S21.47,137,50.94,140.42s45.27-4.27,48.26-6.77,5.21-4.74,5.78-8.76,6.67-47.09,7.11-49.08,1.78-2.15,1.42-4.69c-.13-.9-1.08-3.69-6.27-6.93S88,55,60.91,52.33,10.73,52.18,6,55.11,3.11,60.58,3.73,61.68Z"/><path class="cls-1" d="M109.16,22.44C106.8,16.93,88,14.7,72.08,14l.7,8.26L55.21,26.9,37.69,23.06l3.93-5.61a14.31,14.31,0,0,0,5.91.37A8.68,8.68,0,0,0,52.63,14C37.79,15.08,1.51,22.51,3.18,30.14c1.74,7.91,49.66,5.69,54.48,5.39S112.58,30.4,109.16,22.44Z"/><path class="cls-1" d="M47.53,17.82a14.31,14.31,0,0,1-5.91-.37l-3.93,5.61L55.21,26.9l17.57-4.6L72.08,14c-7.11-.3-13.64-.28-17.86-.1L52.63,14A8.68,8.68,0,0,1,47.53,17.82Z"/><path class="cls-2" d="M9.76,123.08c-1.88-2.88-4.55-6-1.18-8s7.43-2,15.41-2.16,23,3.23,31.17,3S75.38,111.41,80.22,105,89,81.41,91.91,79.59c4.61-.61,13.11-1.31,17.11-2-.4,3.23-5.68,38.31-6.84,43.84s-2.58,8.3-8.16,11.09S71.72,140,50,137,11.65,126,9.76,123.08Z"/><path class="cls-2" d="M5.85,95.57c-.58-4.18,1.69-19.68,2.39-29.19,4.89,3.56,14.35,6.11,16.15,6.31C18.39,79.2,14.1,95.06,12,97.37S6.44,99.75,5.85,95.57Z"/><path class="cls-2" d="M106.84,22.42c-2.58-3.78-23.43-6.71-24.57-5.15s5.36,3,4.34,5.77-28.48,8.22-27.5,9.68c1.23,1.31,22.44-2,28.48-3.21S109.41,26.2,106.84,22.42Z"/><path class="cls-2" d="M23,22.34c-2.93-.39-12,2-14.81,6.05s25.55,5.41,28.91,4.49S28.12,31,23,28.11,26,22.72,23,22.34Z"/><path class="cls-3" d="M29.88,22.5s-4,2.8-5.12,4.3-3.28,4.74-5.28,4.68-1.38-4.88.7-6.75S32.09,19.66,29.88,22.5Z"/><path class="cls-3" d="M12.45,76.65c-2.42,2-4.29,26.85-4.16,28.29.33,3.57,2.52,2.82,3.25-1,1.31-6.82,3-18.27,6.51-25.08C18.89,77.26,15.74,74,12.45,76.65Z"/><path class="cls-3" d="M8.48,113.22A2.08,2.08,0,0,0,8.73,116c.82.59,2.8-.07,3.29-.87s-.66-2-1.26-2.31A2.43,2.43,0,0,0,8.48,113.22Z"/><path class="cls-2" d="M58.15,59.72a106.75,106.75,0,0,1,35.4,9A80.15,80.15,0,0,1,104,74.37c3.8-.63,6.06-1.67,6.18-3.21.4-5.26-18.4-13.29-50-16.21C31.9,52.34,7.59,54.66,6.22,58.79c-.43,1.29,1.86,2.92,6,4.63a57.68,57.68,0,0,1,11.91-2.88A174.53,174.53,0,0,1,58.15,59.72Z"/><path class="cls-4" d="M104,74.37a80.15,80.15,0,0,0-10.4-5.68,106.75,106.75,0,0,0-35.4-9,174.53,174.53,0,0,0-34,.82,57.68,57.68,0,0,0-11.91,2.88c9.15,3.76,27.33,7.91,45.54,9.75C76.55,75.08,94.76,75.91,104,74.37Z"/><path class="cls-2" d="M47.53,17.82a8.74,8.74,0,0,0,5.54-4.58c.88-1.92-.44-3.47-1.63-4.43s-6.35-2-8-4.28a25,25,0,0,0,11,1.63A34.71,34.71,0,0,0,65.32,3.42,1.74,1.74,0,0,0,66,1.33C63.66-.36,57.29,0,54.09.19c-2.88.22-11,1.16-12.83,2.92-1.37,1.3,2.42,3.21,3.64,5s1.49,6.06,1,8A4.71,4.71,0,0,1,44.67,18,9.15,9.15,0,0,0,47.53,17.82Z"/><path class="cls-4" d="M42.34,21.94c1.42,1.51,7,3.82,14.11,3.07s11.7-2.85,11.51-4.9-1.72-1.62-2.59-3.26S63.65,8.2,64.78,6.74s3.71-2.52,1.8-4.92A2.57,2.57,0,0,0,66,1.33a1.74,1.74,0,0,1-.72,2.09A34.71,34.71,0,0,1,54.47,6.16a25,25,0,0,1-11-1.63c1.62,2.29,6.79,3.32,8,4.28s2.51,2.51,1.63,4.43a8.74,8.74,0,0,1-5.54,4.58,9.15,9.15,0,0,1-2.86.15C43.26,19.48,41.32,20.86,42.34,21.94Z"/></g></g></svg>