<svg xmlns="http://www.w3.org/2000/svg" viewBox="0 0 264.07 284.89"><defs><style>.cls-1{fill:#eecd9a;}.cls-2{fill:#b9802c;}.cls-3{fill:#946723;}.cls-4{fill:#6f4d1b;}</style></defs><title>Olla</title><g id="Capa_2" data-name="Capa 2"><g id="Capa_7" data-name="Capa 7"><path class="cls-1" d="M13.79,60c10.1-20,48-13.51,66.82-27S109.29,2.58,126.91.16s33.56,23.51,61.53,38,54.31,3.18,60.68,17.63-12.76,32.07-10.4,55.29,26.35,26.07,25.32,49.65c-.87,20-28.76,16.2-36.54,41.49s7.13,47.3-9.8,65.87c-16,17.54-47.46-1.68-66.54.71s-37.62,20.6-57.42,15-29.82-39.58-47-48.43S0,216.08,0,194.46s33.84-37.37,32.4-60.88S3.7,79.92,13.79,60Z"/><path class="cls-2" d="M41.41,123.86c1.1,1.93,1.42,4.78,1.15,8.16s-7.3,65.28-7.68,77.13c-.34,11,1.62,18.26,7.2,23.83s30.54,23.41,82.38,29.39,79.63-7.52,84.89-11.92,9.16-8.34,10.16-15.41,11.74-82.83,12.52-86.33,3.12-3.78,2.49-8.26c-.22-1.58-1.89-6.48-11-12.19S189.59,112,142,107.41s-88.27-.26-96.54,4.89S40.32,121.92,41.41,123.86Z"/><path class="cls-2" d="M226.88,54.82c-4.16-9.68-37.25-13.61-65.23-14.77l1.23,14.52L132,62.68l-30.83-6.76,6.93-9.87s6,1.69,10.39.65a15.35,15.35,0,0,0,9-6.66c-26.11,1.84-89.92,14.9-87,28.32,3,13.93,87.34,10,95.82,9.49S232.89,68.83,226.88,54.82Z"/><path class="cls-2" d="M118.46,46.7c-4.42,1-10.39-.65-10.39-.65l-6.93,9.87L132,62.68l30.91-8.11-1.23-14.52c-12.52-.52-24-.49-31.43-.18-.87,0-1.8.1-2.79.17A15.35,15.35,0,0,1,118.46,46.7Z"/><path class="cls-3" d="M52,231.86c-3.31-5.07-8-10.63-2.09-14.14s13.09-3.5,27.12-3.81,40.37,5.69,54.84,5.32,35.57-7.9,44.07-19.2,15.36-41.46,20.56-44.68c8.11-1.07,23.07-2.29,30.11-3.51-.7,5.68-10,67.39-12,77.13s-4.54,14.59-14.35,19.5S161,261.6,122.87,256.38,55.33,236.94,52,231.86Z"/><path class="cls-3" d="M45.14,183.47c-1-7.35,3-34.62,4.2-51.34,8.6,6.25,25.24,10.73,28.4,11.09-10.55,11.45-18.08,39.35-21.83,43.42S46.18,190.83,45.14,183.47Z"/><path class="cls-3" d="M222.78,54.79c-4.53-6.64-41.2-11.81-43.22-9.06S189,51,187.2,55.89s-50.09,14.44-48.38,17c2.17,2.29,39.48-3.53,50.11-5.67S227.32,61.44,222.78,54.79Z"/><path class="cls-3" d="M75.35,54.65c-5.16-.68-21,3.55-26.07,10.63s45,9.52,50.86,7.91S84.3,69.84,75.3,64.79,80.5,55.32,75.35,54.65Z"/><path class="cls-1" d="M87.41,54.93s-7.11,4.92-9,7.56-5.76,8.34-9.28,8.23-2.43-8.58,1.23-11.86S91.29,49.93,87.41,54.93Z"/><path class="cls-1" d="M56.74,150.19c-4.24,3.49-7.54,47.22-7.31,49.77.57,6.28,4.44,4.94,5.72-1.74,2.3-12,5.18-32.13,11.44-44.11C68.08,151.27,62.54,145.44,56.74,150.19Z"/><path class="cls-1" d="M49.77,214.52c-1,.92-1,3.76.44,4.8s4.91-.12,5.78-1.54-1.16-3.56-2.21-4.05A4.23,4.23,0,0,0,49.77,214.52Z"/><path class="cls-3" d="M137.14,120.4a188,188,0,0,1,62.27,15.78,139,139,0,0,1,18.29,10c6.68-1.12,10.67-2.94,10.88-5.65.7-9.26-32.38-23.38-87.93-28.52-49.69-4.6-92.45-.51-94.87,6.76-.75,2.27,3.28,5.14,10.61,8.14a101,101,0,0,1,21-5.06A306.19,306.19,0,0,1,137.14,120.4Z"/><path class="cls-4" d="M217.7,146.18a139,139,0,0,0-18.29-10,188,188,0,0,0-62.27-15.78,306.19,306.19,0,0,0-59.79,1.45,101,101,0,0,0-21,5.06c16.09,6.61,48.07,13.91,80.11,17.16C169.5,147.42,201.54,148.89,217.7,146.18Z"/><path class="cls-3" d="M118.46,46.7a15.39,15.39,0,0,0,9.74-8.05c1.56-3.38-.78-6.11-2.86-7.79s-11.17-3.51-14-7.54c7.93,2.73,12.45,3.25,19.35,2.86s16.67-3.4,19.1-4.81c1.44-.83,1.57-2.28,1.26-3.68-4.19-3-15.39-2.43-21-2-5.06.38-19.27,2-22.56,5.14-2.42,2.29,4.25,5.65,6.4,8.85s2.63,10.67,1.69,14.07a8.34,8.34,0,0,1-2.1,3.21A16.68,16.68,0,0,0,118.46,46.7Z"/><path class="cls-4" d="M109.33,54c2.5,2.66,12.32,6.71,24.82,5.39s20.58-5,20.24-8.61-3-2.86-4.55-5.75-3-15.21-1.05-17.77,6.53-4.44,3.18-8.67a4.64,4.64,0,0,0-.95-.85c.31,1.4.18,2.85-1.26,3.68-2.43,1.41-12.21,4.42-19.1,4.81s-11.42-.13-19.35-2.86c2.86,4,12,5.85,14,7.54s4.42,4.41,2.86,7.79a15.39,15.39,0,0,1-9.74,8.05,16.68,16.68,0,0,1-5,.26C111,49.62,107.53,52,109.33,54Z"/></g></g></svg>