<svg xmlns="http://www.w3.org/2000/svg" viewBox="0 0 206.99 271.07"><defs><style>.cls-1{fill:#eecd9a;}.cls-2{fill:#6f4d1b;}.cls-3{fill:#946723;}.cls-4{fill:#b9802c;}</style></defs><title>Punto</title><g id="Capa_2" data-name="Capa 2"><g id="Capa_9" data-name="Capa 9"><path class="cls-1" d="M68.67.86c18.7-5.25,37.22,15,55.11,18.84s28.62-12.52,43-4,8.51,29.37,14.71,47.05c7.73,22,25.54,32,25.54,58S175.84,148.5,171.08,171c-4.63,21.95,19,37.41,10.37,54.26-9.3,18.23-27,2.24-44.8,14.13-18.9,12.65-31,34.92-50.51,31.25C65.38,266.75,68.32,232,53.91,225.29c-16.1-7.5-30.68-7.28-37.8-25.08-6.91-17.3,9.46-24.19,9.46-45.44,0-23.9-30-33.91-25-60.9,5-27.31,25.11-28.7,39-43.05S50,6.12,68.67.86Z"/></g><g id="Capa_7" data-name="Capa 7"><path class="cls-2" d="M79.37,113.63c-8.69-.61-17.37-3.36-25.46-7.12l3.4,38.9,52.46,14.1-8.08-19.61S84.9,128.87,79.37,113.63Z"/><path class="cls-3" d="M77.62,103.48c.56-20.25,9.59-34.22,24.07-40.73,10.9-4.9-4.34-29-4.34-29L50.54,68.13l3.37,38.38c8.09,3.76,16.77,6.51,25.46,7.12A27.36,27.36,0,0,1,77.62,103.48Z"/><path class="cls-4" d="M156.25,79.22c-4.56-20.36-14-30.19-26.68-40.72C119.73,30.3,102.23,25.8,95,24.21a80.94,80.94,0,0,0-10.85,1.95c-8.41,2.21-18.44,7.1-27.74,14.3s-18.23,19.14-23,30.35A88.77,88.77,0,0,0,26,106.35c.22,14.51,3.65,23.73,7.41,30.44,3.67,6.52,54.12,95.38,59.87,104.63a47.36,47.36,0,0,1,4.54-6.2C124.48,204,151,152.29,154.47,134S160.81,99.58,156.25,79.22Zm-32.17,45.44c-5.54,7.56-17.43,15.24-22.39,15.24A39.24,39.24,0,0,1,80,132.81a49.36,49.36,0,0,1-14.82-16.89,34.53,34.53,0,0,1-3.09-14.6,41.73,41.73,0,0,1,3.25-14.75c2.51-6,8.15-14.4,16.73-19.1s19.65-4.72,19.65-4.72c9.39,0,17.77,6.63,23.2,13.75s7.76,16.47,7.76,24.82S129.61,117.1,124.08,124.66Z"/><path class="cls-3" d="M180.78,89.88A95.75,95.75,0,0,0,170,60.12,74.71,74.71,0,0,0,149.18,37c-8.36-6.24-20.62-10.79-31.64-12.62A84.46,84.46,0,0,0,95,24.21c7.27,1.59,24.77,6.09,34.61,14.29C142.21,49,151.69,58.86,156.25,79.22s.59,39.58-3.56,54.82c-.57,2.08-1.41,4.56-2.45,7.33,7.91-2.21,18.91-6.55,28.21-14.42C181.54,115.5,182.11,98.21,180.78,89.88Z"/><path class="cls-2" d="M93.26,241.42c.16.27.3.48.39.61a11.87,11.87,0,0,0,10.62,5.64,10.71,10.71,0,0,0,9.75-5.21c2.76-4.17,60-101.84,63.72-113.13.25-.76.48-1.56.71-2.38-9.3,7.87-20.3,12.21-28.21,14.42-8,21.07-28.81,59.88-46.36,84.52C102,228.59,94.3,238.36,93.26,241.42Z"/></g></g></svg>