<svg xmlns="http://www.w3.org/2000/svg" viewBox="0 0 65.2 93.99"><defs><style>.cls-1{fill:#b9802c;}.cls-2{fill:#946723;}.cls-3{fill:#6f4d1b;}.cls-4{fill:#eecd9a;}</style></defs><title>Recurso 12</title><g id="Capa_2" data-name="Capa 2"><g id="Capa_7" data-name="Capa 7"><path class="cls-1" d="M54.63,23.35c-1.91-8.54-5.89-12.66-11.19-17.08C39.32,2.84,32,1,28.93.28a34.48,34.48,0,0,0-4.55.82,34,34,0,0,0-11.63,6A33.94,33.94,0,0,0,3.11,19.82,37.32,37.32,0,0,0,0,34.73,25.75,25.75,0,0,0,3.11,47.49c1.54,2.74,22.7,40,25.11,43.88a19.07,19.07,0,0,1,1.9-2.6C41.31,75.67,52.41,54,53.88,46.34S56.54,31.89,54.63,23.35Zm-13.49,19c-2.32,3.17-7.31,6.39-9.39,6.39a16.51,16.51,0,0,1-9.11-3,20.7,20.7,0,0,1-6.21-7.08,14.45,14.45,0,0,1-1.3-6.12,17.45,17.45,0,0,1,1.37-6.19,17,17,0,0,1,7-8,19.8,19.8,0,0,1,8.24-2c3.94,0,7.45,2.78,9.73,5.77a17.42,17.42,0,0,1,3.25,10.41A16.2,16.2,0,0,1,41.14,42.4Z"/><path class="cls-2" d="M18.76,34.52c-.05-.52-.08-1.05-.08-1.61a18.55,18.55,0,0,1,3.07-10.53c2-2.86,5.56-5.94,10-5.94a19.8,19.8,0,0,0-8.24,2,17,17,0,0,0-7,8,17.45,17.45,0,0,0-1.37,6.19c0,.28,0,.55,0,.83A7.35,7.35,0,0,0,18.76,34.52Z"/><path class="cls-3" d="M22.64,45.82a16.51,16.51,0,0,0,9.11,3c-2.08,0-5.67-2.12-8.15-4.7-2.79-2.92-4.47-5.81-4.84-9.57a7.35,7.35,0,0,1-3.61-1.07,14.28,14.28,0,0,0,1.28,5.29A20.7,20.7,0,0,0,22.64,45.82Z"/><path class="cls-2" d="M64.92,27.82a39.93,39.93,0,0,0-4.51-12.48,31.44,31.44,0,0,0-8.74-9.7A32.47,32.47,0,0,0,38.4.35,35.72,35.72,0,0,0,28.93.28C32,1,39.32,2.84,43.44,6.27c5.3,4.42,9.28,8.54,11.19,17.08s.25,16.6-1.49,23c-.24.87-.59,1.91-1,3.07a31.78,31.78,0,0,0,11.83-6A45.75,45.75,0,0,0,64.92,27.82Z"/><path class="cls-3" d="M28.22,91.37c.07.11.12.2.16.25A5,5,0,0,0,32.83,94a4.5,4.5,0,0,0,4.09-2.18c1.16-1.75,25.17-42.71,26.72-47.45.11-.31.21-.65.3-1a31.78,31.78,0,0,1-11.83,6C48.76,58.25,40,74.52,32.67,84.85,31.86,86,28.65,90.08,28.22,91.37Z"/><path class="cls-4" d="M7.77,16.24a44.51,44.51,0,0,0-4.53,11.3,26.58,26.58,0,0,0,.13,14C4.88,47.23,11.23,57,12,57.53s1.78.7,1.91-.52S7.37,46,6.52,40.65A28.6,28.6,0,0,1,7.82,25.9,27.17,27.17,0,0,1,12.19,18c1.09-1.34,1.18-3.33-.09-3.87S9,14,7.77,16.24Z"/><path class="cls-4" d="M15.49,60.1c-.55-.18-1.2.27-1.28,1.46s3.83,6.76,4.35,7.27,1.54.71,1.46-.13S16.05,60.27,15.49,60.1Z"/></g></g></svg>