<svg xmlns="http://www.w3.org/2000/svg" viewBox="0 0 110.24 110.65"><defs><style>.cls-1{fill:#6f4d1b;}.cls-2{fill:#946723;}.cls-3{fill:#b9802c;}.cls-4{fill:#eecd9a;}</style></defs><title>donation_point</title><g id="Capa_2" data-name="Capa 2"><g id="Capa_7" data-name="Capa 7"><path class="cls-1" d="M26.77,75.18C18.45,76.16-1.4,93.82.08,99.33s61,12.92,70.75,11,38.77-11,39.4-14S84.83,76.66,76.75,75.18,34,74.33,26.77,75.18Z"/><path class="cls-2" d="M30.38,75.1c-7.58.89-25.66,17-24.31,22s55.57,11.77,64.45,10,35.31-10,35.89-12.73-23.14-18-30.5-19.3S36.94,74.33,30.38,75.1Z"/><path class="cls-3" d="M75.76,23.35c-1.91-8.54-5.89-12.66-11.19-17.08C60.45,2.84,53.11,1,50.06.28a34.48,34.48,0,0,0-4.55.82A32.84,32.84,0,0,0,24.24,19.82a37.32,37.32,0,0,0-3.11,14.91,25.75,25.75,0,0,0,3.11,12.76c1.54,2.74,22.7,40,25.11,43.88a19.07,19.07,0,0,1,1.9-2.6C62.44,75.67,73.54,54,75,46.34S77.68,31.89,75.76,23.35Zm-13.49,19C60,45.57,55,48.79,52.88,48.79a16.45,16.45,0,0,1-9.1-3,20.63,20.63,0,0,1-6.22-7.08,14.45,14.45,0,0,1-1.3-6.12,17.45,17.45,0,0,1,1.37-6.19,17,17,0,0,1,7-8,19.8,19.8,0,0,1,8.24-2c3.94,0,7.46,2.78,9.73,5.77a17.42,17.42,0,0,1,3.25,10.41A16.2,16.2,0,0,1,62.27,42.4Z"/><path class="cls-2" d="M39.89,34.52c0-.52-.08-1.05-.08-1.61a18.55,18.55,0,0,1,3.07-10.53c2-2.86,5.56-5.94,10-5.94a19.8,19.8,0,0,0-8.24,2,17,17,0,0,0-7,8,17.45,17.45,0,0,0-1.37,6.19c0,.28,0,.55,0,.83A7.35,7.35,0,0,0,39.89,34.52Z"/><path class="cls-1" d="M43.78,45.82a16.45,16.45,0,0,0,9.1,3c-2.07,0-5.67-2.12-8.15-4.7-2.79-2.92-4.47-5.81-4.84-9.57a7.35,7.35,0,0,1-3.61-1.07,14.28,14.28,0,0,0,1.28,5.29A20.63,20.63,0,0,0,43.78,45.82Z"/><path class="cls-2" d="M86.05,27.82a39.93,39.93,0,0,0-4.51-12.48,31.44,31.44,0,0,0-8.74-9.7A32.47,32.47,0,0,0,59.53.35,35.72,35.72,0,0,0,50.06.28c3,.67,10.39,2.56,14.51,6,5.3,4.42,9.28,8.54,11.19,17.08s.25,16.6-1.49,23c-.24.87-.59,1.91-1,3.07a31.78,31.78,0,0,0,11.83-6A45.75,45.75,0,0,0,86.05,27.82Z"/><path class="cls-1" d="M49.35,91.37c.07.11.12.2.16.25A5,5,0,0,0,54,94a4.5,4.5,0,0,0,4.09-2.18c1.16-1.75,25.17-42.71,26.72-47.45.11-.31.21-.65.3-1a31.78,31.78,0,0,1-11.83,6C69.89,58.25,61.16,74.52,53.8,84.85,53,86,49.78,90.08,49.35,91.37Z"/><path class="cls-4" d="M28.91,16.24a44.09,44.09,0,0,0-4.54,11.3,26.58,26.58,0,0,0,.13,14c1.51,5.73,7.86,15.48,8.59,16s1.78.7,1.91-.52-6.5-11-7.35-16.36A28.71,28.71,0,0,1,29,25.9,27.17,27.17,0,0,1,33.32,18c1.09-1.34,1.18-3.33-.09-3.87S30.17,14,28.91,16.24Z"/><path class="cls-4" d="M36.62,60.1c-.55-.18-1.2.27-1.28,1.46s3.83,6.76,4.35,7.27,1.54.71,1.46-.13S37.18,60.27,36.62,60.1Z"/></g></g></svg>