<svg xmlns="http://www.w3.org/2000/svg" viewBox="0 0 202.09 281.75"><defs><style>.cls-1{fill:#77213f;}.cls-2{fill:#5a192f;}.cls-3{fill:#b3325f;}.cls-4{fill:#ecccd7;}</style></defs><title>Emergency</title><g id="Capa_2" data-name="Capa 2"><g id="Anteriores"><path class="cls-1" d="M127.69,34.88c-41.62-23.64-65.58,5.79-65.58,5.79,11.73-12.39,53.18-12.89,59.83,9.1,3.06,10.14,1.8,36.38-2,63.74a128.58,128.58,0,0,0,13.35-4.75C139.21,73.87,138,40.74,127.69,34.88Z"/><path class="cls-2" d="M97.22,192.52l0,.11c17.62-13.38,30.29-49.48,36.09-83.87A128.58,128.58,0,0,1,120,113.51C115.2,148.37,106.36,185,97.22,192.52Z"/><path class="cls-1" d="M109.77,204.39c-26.28-7.61-35,10-35,10v0a8.91,8.91,0,0,1,3.65-2.59c32.65-11.9,40.43,5.41,40.43,26,0,5.12-1.42,8.9-3.77,11.65C127,236.75,124.82,208.75,109.77,204.39Z"/><path class="cls-1" d="M111.31,252.6l0,0Z"/><path class="cls-1" d="M110.79,252.92a24.43,24.43,0,0,1-7.36,2.58A19.26,19.26,0,0,0,110.79,252.92Z"/><path class="cls-3" d="M78.38,211.83a8.91,8.91,0,0,0-3.65,2.59c-8.45,9.68-3.57,38.77,8,40.7,5.87,1,13.76,1.72,20.66.38a24.43,24.43,0,0,0,7.36-2.58l.48-.3,0,0a15.65,15.65,0,0,0,3.73-3.15c2.35-2.75,3.77-6.53,3.77-11.65C118.81,217.24,111,199.93,78.38,211.83Z"/><path class="cls-4" d="M201.27,198.17c-3.22-19.1-34.16-28.76-16.2-54.58,29.79-42.81-4.13-49.43-17.71-72C150.31,43.21,171.29,10.06,121.28.83,79.75-6.83,75.82,40.9,38.38,36.33-12.44,30.13-6.52,92.77,20,110.56,51.7,131.78,2,147.62,2,173.05c0,33.79,25.34,31.6,36.42,53.51,11.17,22.08,1.84,54.85,35.43,55.18,47.47.46,38-26.64,75.32-30.12S206.48,229,201.27,198.17Zm-90,54.43,0,0-.48.3a19.26,19.26,0,0,1-7.36,2.58c-6.9,1.34-14.79.59-20.66-.38-11.61-1.93-16.49-31-8-40.7v0s8.77-17.62,35.05-10c15,4.36,17.18,32.36,5.27,45.06A15.65,15.65,0,0,1,111.31,252.6Zm-14.07-60,0-.11a5.86,5.86,0,0,1-2.62,1.34c-25.37,4.55-47.84-137-32.49-153.19,0,0,24-29.43,65.58-5.79C148.18,46.52,132.73,165.67,97.24,192.63Z"/><path class="cls-3" d="M121.94,49.77c-6.65-22-48.1-21.49-59.83-9.1C46.76,56.91,69.23,198.41,94.6,193.86a5.86,5.86,0,0,0,2.62-1.34C113.53,179.15,128.9,72.81,121.94,49.77Z"/></g></g></svg>