<svg xmlns="http://www.w3.org/2000/svg" viewBox="0 0 483.3 440.23"><defs><style>.cls-1{fill:#f7e6cd;}.cls-2{fill:#b9802c;}.cls-3{fill:#de9a35;}.cls-4{fill:#e6b368;}.cls-5{fill:#946723;}</style></defs><title>Recurso 10</title><g id="Capa_2" data-name="Capa 2"><g id="Ilustraciones"><path class="cls-1" d="M66.45,107.05c22.19-33.58,53.68-16.78,97.86-31.68S214.59,9.66,256.58,13s60.11,93.69,119.47,101.63,74.17-.59,98.15,32.07S468.13,202.28,459.73,250s8,98.67-36.06,115.73-83.53-9.32-128,10.89c-41.31,18.76-45.41,63.61-95.38,63.61S136.79,385,99,353C73,331,9.81,329.67,1,297.8c-9.24-33.45,48.11-53.36,60.8-95.19S44.26,140.63,66.45,107.05Z"/><path class="cls-2" d="M286.62,79.43c9.82-30.2-7.64-75-48.47-78.33L208.36,110C231.29,118.52,274.86,115.65,286.62,79.43Z"/><path class="cls-3" d="M281.28,78.24c-8.61,30.15-41.7,43-72.43,31.9S160.65,61.42,175.79,34c13.39-24.3,40.82-41.51,71.63-30.63C273.63,12.59,288.81,51.87,281.28,78.24Z"/><path class="cls-4" d="M272.37,39.14c-9.23,4.48-20.08,6-30,6-18.55,0-25.75-7-51-5.13a48.34,48.34,0,0,0-14.16,3.21A45.94,45.94,0,0,0,176,65.93c10.34-6.17,23.55-4.94,36.21-2C231,68.3,236.56,80.41,259,82.73a46,46,0,0,0,15.1-.92,40.88,40.88,0,0,0,1.56-5.48C278.07,65.17,276.89,51.41,272.37,39.14Z"/><path class="cls-2" d="M233.59,22.07c-1.62.61-2.52,5.49-6.09,7.17S217,30.32,214.3,39.93c-2.42,8.58,3.08,14,9,18.41s10,6.92,8.4,12.06-6,5.5-10.14,5.14-10-3.54-13-8c-2.32-3.35-9.33,2.87-5.75,6.77s6.72,4.82,8.12,8.44c.79,2,1.46,5.51,2.08,7s6.23,3.2,7.77,2.55,3.34-5.27,7.18-7.92,12.09-3.82,14.83-11c3.1-8.12-2-16.26-10.74-20.92-4.72-2.53-6.64-5.38-6.17-9.38.8-6.92,11.12-6,14.86,3.23,2,4.89,11.15-3.37,7.8-6.86-2.46-2.55-5.09-3.75-6.43-7s-.51-6.48-.81-7.77S235.22,21.46,233.59,22.07Z"/><path class="cls-4" d="M426.64,256.42c-7.12-10.17-25.63-4.72-34.16-9.83S375,227,375.59,219.54s35.94-45.69,21.08-47.94c-14.6-2.21-36.93,14.59-51.45,5.71-6.48-4,17-41.2,2.16-39.33-22.91,2.89-29.92,13.92-52.55,15.49-18.8,1.31-40.15-3.61-88.74,2.54s-91.15,24.63-119.61,71.33S79.05,323.69,99.85,352.8c6.58,9.19,8,45.15,12.86,53.1s30.69,15.77,46.54,14.39S177,405.91,197,404.63s47.07-2.22,61.1,4.55,14.67,16.22,29.06,20.95,38.37-7.42,45.27-16.25,2-20.78,17.36-36.87c22.74-23.89,31.59-41.44,41.48-47.09s23.62.73,29.36-7.61S433.76,266.59,426.64,256.42Z"/><path class="cls-3" d="M372.25,260.78c21.53,14.38,39.29-7.63,46.41,2.54s-.09,40.4-5.83,48.74-20.92,7.35-30.81,13-15.53,23-38.27,46.9c-15.31,16.09-11.15,26.56-18,35.4s-26.08,15.11-40.47,10.38-16.58-11.83-30.66-18.48c-12.51-5.9-36.08-7.87-56.15-6.59s-24.73,11.09-40.58,12.48S127,399.94,122.18,392s-6.59-41.37-11.16-51.71c-15-34-34.11-75,2.83-115.33,30.53-33.32,77.22-42.58,136.47-39.54C306.48,188.28,350.31,246.12,372.25,260.78Z"/><ellipse class="cls-2" cx="351.47" cy="261.84" rx="10.28" ry="18.45" transform="translate(-14.1 20.08) rotate(-3.21)"/><path class="cls-5" d="M359.64,256.49c1.7,10.05-.94,20.83-6.6,21.15s-9.38-5.26-10-15.43,2.71-.06,8.38-.37S357.68,244.83,359.64,256.49Z"/><path class="cls-2" d="M268,180.28c-1.23-2.56-27.63-10.82-51.36-8.46-23.27,2.31-43.46,13-44.29,16.38a10.93,10.93,0,0,0,.2,4.55c2-3.81,21-14.17,42.82-16.45,23-2.41,48.67,6.11,49.86,8.76.63,1.38.55,4.67-.2,7.65C268.08,190.44,269.13,182.6,268,180.28Z"/><path class="cls-5" d="M265.26,185.06c-1.19-2.65-26.83-11.17-49.86-8.76-21.8,2.28-40.81,12.64-42.82,16.45.71,3.38,2.38,7.14,4.1,8.32,2.61,1.79,15.66-11,42.44-13.08,24.76-2,41.06,6.29,44.89,5.28a3.15,3.15,0,0,0,1.05-.56C265.81,189.73,265.89,186.44,265.26,185.06Z"/><path class="cls-2" d="M184.32,36.85c7.58-13.77,19.9-25.12,34.75-29.8-17,3.09-31.2,15.11-39.5,30.12-13.83,25,2.05,59.35,30.06,69.51.94.34,1.88.65,2.82.94C185.31,96.13,170.46,62,184.32,36.85Z"/></g></g></svg>