<svg xmlns="http://www.w3.org/2000/svg" viewBox="0 0 483.3 469.79"><defs><style>.cls-1{fill:#f7e6cd;}.cls-2{fill:#b9802c;}.cls-3{fill:#de9a35;}.cls-4{fill:#e6b368;}.cls-5{fill:#946723;}</style></defs><title>Donate</title><g id="Capa_2" data-name="Capa 2"><g id="Ilustraciones"><path class="cls-1" d="M66.45,136.61c22.19-33.58,53.68-16.78,97.86-31.68s50.28-65.72,92.27-62.42,60.11,93.69,119.47,101.63,74.17-.59,98.15,32.07-6.07,55.63-14.47,103.35,8,98.67-36.06,115.73-83.53-9.32-128,10.89c-41.31,18.76-45.41,63.61-95.38,63.61S136.79,414.59,99,382.53c-26-22-89.15-23.31-98-55.17C-8.24,293.91,49.11,274,61.8,232.17S44.26,170.19,66.45,136.61Z"/><path class="cls-2" d="M302.05,79.43c9.82-30.2-7.64-75-48.47-78.33L223.79,110C246.72,118.52,290.29,115.65,302.05,79.43Z"/><path class="cls-3" d="M296.71,78.24c-8.61,30.15-41.7,43-72.43,31.9S176.08,61.42,191.21,34C204.61,9.66,232-7.55,262.85,3.33,289.06,12.59,304.24,51.87,296.71,78.24Z"/><path class="cls-4" d="M287.8,39.14c-9.23,4.48-20.08,6-29.95,6-18.55,0-25.75-7-51-5.13a48.34,48.34,0,0,0-14.16,3.21,45.94,45.94,0,0,0-1.3,22.71c10.34-6.17,23.54-4.94,36.2-2,18.8,4.37,24.41,16.48,46.87,18.8a46,46,0,0,0,15.1-.92,40.88,40.88,0,0,0,1.56-5.48C293.5,65.17,292.32,51.41,287.8,39.14Z"/><path class="cls-2" d="M249,22.07c-1.62.61-2.52,5.49-6.09,7.17s-10.5,1.08-13.2,10.69c-2.42,8.58,3.08,14,9,18.41s10,6.92,8.4,12.06-6,5.5-10.14,5.14-10-3.54-13-8c-2.32-3.35-9.33,2.87-5.75,6.77s6.72,4.82,8.12,8.44c.79,2,1.46,5.51,2.08,7s6.23,3.2,7.77,2.55,3.34-5.27,7.18-7.92,12.09-3.82,14.83-11c3.1-8.12-2-16.26-10.74-20.92-4.72-2.53-6.64-5.38-6.17-9.38.8-6.92,11.12-6,14.86,3.23,2,4.89,11.15-3.37,7.8-6.86-2.46-2.55-5.09-3.75-6.43-7s-.51-6.48-.81-7.77S250.65,21.46,249,22.07Z"/><path class="cls-4" d="M420,248.43c-6.56-9.38-23.63-4.36-31.49-9.07s-16.16-18-15.58-24.94,33.14-42.13,19.44-44.21c-13.46-2-34.06,13.46-47.44,5.27-6-3.66,15.7-38,2-36.26-21.12,2.66-27.59,12.82-48.45,14.28-17.35,1.2-37-3.33-81.83,2.33s-84.06,22.72-110.3,65.78-6.85,88.85,12.33,115.69c6.06,8.48,7.39,41.63,11.86,49s28.3,14.54,42.92,13.26,16.31-13.26,34.82-14.44,43.4-2,56.34,4.2,13.53,14.95,26.8,19.32,35.38-6.84,41.74-15,1.88-19.16,16-34c21-22,29.13-38.2,38.25-43.42s21.78.68,27.08-7S426.57,257.8,420,248.43Z"/><path class="cls-3" d="M369.85,252.44c19.86,13.26,36.23-7,42.8,2.35s-.08,37.25-5.38,44.94-19.29,6.78-28.41,12S364.54,332.93,343.57,355c-14.12,14.83-10.28,24.49-16.63,32.64s-24.05,13.94-37.32,9.57-15.29-10.91-28.27-17c-11.54-5.44-33.27-7.25-51.78-6.07s-22.8,10.22-37.42,11.5-28.43-4.8-32.89-12.13-6.07-38.15-10.29-47.68c-13.88-31.34-31.46-69.17,2.61-106.35,28.15-30.73,71.2-39.26,125.84-36.47C309.21,185.6,349.62,238.93,369.85,252.44Z"/><ellipse class="cls-2" cx="350.69" cy="253.42" rx="9.48" ry="17.01" transform="translate(-13.63 20.02) rotate(-3.21)"/><path class="cls-5" d="M358.23,248.49c1.56,9.27-.87,19.21-6.09,19.5s-8.65-4.84-9.18-14.22,2.5-.05,7.73-.35S356.41,237.74,358.23,248.49Z"/></g><g id="Capa_5" data-name="Capa 5"><path class="cls-2" d="M273.75,178.22c-1.14-2.37-25.48-10-47.36-7.8-21.46,2.13-40.08,12-40.84,15.1a10.24,10.24,0,0,0,.18,4.2c1.86-3.51,19.39-13.07,39.49-15.17,21.24-2.23,44.88,5.63,46,8.07.57,1.28.5,4.31-.19,7.06C273.8,187.59,274.77,180.35,273.75,178.22Z"/><path class="cls-5" d="M271.2,182.62c-1.1-2.44-24.74-10.3-46-8.07-20.1,2.1-37.63,11.66-39.49,15.17.66,3.12,2.2,6.58,3.78,7.67,2.41,1.65,14.45-10.13,39.13-12.06,22.84-1.8,37.87,5.8,41.4,4.86a2.75,2.75,0,0,0,1-.51C271.7,186.93,271.77,183.9,271.2,182.62Z"/></g><g id="Capa_6" data-name="Capa 6"><path class="cls-2" d="M199.75,36.85c7.58-13.77,19.9-25.12,34.75-29.8-17,3.09-31.2,15.11-39.5,30.12-13.83,25,2.05,59.35,30.06,69.51.94.34,1.88.65,2.82.94C200.74,96.13,185.89,62,199.75,36.85Z"/></g></g></svg>