<svg xmlns="http://www.w3.org/2000/svg" viewBox="0 0 1235.24 917.41"><defs><style>.cls-1{fill:#f7e6cd;}.cls-2{fill:#2a9570;}.cls-3{fill:#32b386;}.cls-4{fill:#e6b368;}.cls-5{fill:#eecd9a;}</style></defs><title>Recurso 4</title><g id="Capa_2" data-name="Capa 2"><g id="Donate_Hand" data-name="Donate Hand"><path class="cls-1" d="M428.44,11C502-34.85,631.1,77.26,691.82,81.65S848.48,4.15,928.89,22.5s59.88,168.59,96.94,207.78,174.85,16.21,204.63,73S1141.9,461.72,1128.92,520.8s69.74,182,24.3,246.13S923,736.33,853.09,760.55,746,917.41,652.84,917.41s-96.6-112.56-173.59-143.7-198,72.82-236.32,4,30.3-130.2,20-227.86-105.78-126-82.05-202.06,93.29-67.82,152.31-126C396.2,159.61,354.91,56.83,428.44,11Z"/><path class="cls-2" d="M471.18,266.31c-5.55-12.76,4.71-90.13,66.75-102S645.5,190.56,645.5,226.54s-41.5,65.57-46.52,91,6.61,27.16-2.38,38-30.39,11.61-38.26,5.78-18.79-40.31-9.4-63.51,24.57-28.14,34.35-50.79,1-51.26-35.46-40-18.17,63.52-30,67.9S476.73,279.08,471.18,266.31Z"/><path class="cls-2" d="M555.87,381.1c-7.58,10.15-1.84,38.84,8.47,45.95s37.07,2,45.66-8.12,4.55-41.81-10.06-46.89S563.45,371,555.87,381.1Z"/><path class="cls-2" d="M738.38,138.2C744.25,117,785,41.12,864.89,55.68S995.19,137.1,965,191.94,892,233.76,863.34,259s-7.7,43.92-29.47,57.45c-15.35,9.55-49.88.09-53.08-21.7-2.8-19.05,6.61-48.65,30.59-68.7,20.16-16.85,61.73-14.93,83.76-47.49s10.76-59.3-29.57-69.25S791.8,150.48,784.82,162,730.26,167.49,738.38,138.2Z"/><path class="cls-2" d="M781.13,331.17c-14.51,11.08-17.5,40.81-10.24,56.39s58,22.06,66.56,6.71,9.39-49,0-58S795.63,320.08,781.13,331.17Z"/><path class="cls-3" d="M738.37,133.83c3.34-21,44.65-94.12,121.15-80s124.77,78.93,95.8,132.1S885.51,226.46,858,251s-14.85,44.56-28.22,55.7-41.59,5.2-49-11.88,4.52-56.33,27.48-75.75c19.31-16.34,59.11-14.49,80.21-46s7.43-60.39-31.19-70-72.56,41.82-79.24,53S735,154.86,738.37,133.83Z"/><path class="cls-3" d="M779.31,330.44c-12.63,9.65-15.23,35.54-8.92,49.12s50.51,19.21,57.93,5.84,8.17-42.67,0-50.5S791.93,320.78,779.31,330.44Z"/><path class="cls-3" d="M471.11,261.88c-5.26-12.23,4.47-86.3,63.26-97.66s102,25.13,102,59.58-41.23,62.78-46,87.08,7.22,26-1.3,36.37-27.86,11.11-35.32,5.53-17.81-38.59-8.91-60.81,23.28-26.94,32.56-48.62-4.78-52.91-39.3-42.09S519,264.94,507.73,269.14,476.37,274.1,471.11,261.88Z"/><path class="cls-3" d="M555.4,379.75c-6.56,8.93-1.59,34.17,7.35,40.43S594.85,422,602.3,413s3.94-36.79-8.72-41.25S562,370.81,555.4,379.75Z"/><path class="cls-4" d="M689.86,629.47c28.72-4.41,43.68-12.71,54.4-30.36,6.69-11,7.33-26.67,6-37.36l-15.88,3.69a36,36,0,0,1-.17,10.14c-2.08,15.67-10.69,33.93-35.05,39.79-18,4.33-38.89,6.56-65.65,6S542.33,617,451.87,593.26C504.09,611.43,618.14,638.27,689.86,629.47Z"/><path class="cls-5" d="M323.78,692.3c33.36,6.17,203.18,58.82,236.38,64.84,30.27,5.48,69.32,7.51,95.38-3.73,29.75-12.83,236-114.93,239.58-115.91s10.47-5.25,14.19-9.32,75.94-105.8,97.44-129.94,21.66-43.68,21.28-52.64c-.34-8.2-6.62-15.12-16.27-15.24-.52,0-1,0-1.56.05s-.8,0-1.22.08h0a37.55,37.55,0,0,0-14.22,4.21h0s-8,3-18,12.29c-8.22,7.6-50.5,49.91-63,63.2S876.34,562,866.89,565.32,827,576.49,804.12,587.8c10.6-8.47,47-26,56-28.41S893.51,518,912.8,496.31s43.67-46.47,48.83-51.7c13.76-13.95,7.79-23.65-6.87-23.83-10.27,2.65-20.51,9-30.73,19.75C907.42,458,811,536.12,790.35,547.85c-4.11,2.34-29.9,10.52-40.09,13.9,1.33,10.69.69,26.36-6,37.36-10.72,17.65-25.68,25.95-54.4,30.36-71.72,8.8-185.77-18-238-36.21,90.46,23.74,154.89,27.51,181.64,28.09s47.64-1.65,65.65-6c24.36-5.86,33-24.12,35.05-39.79s-3.14-19.75-13.4-25.23c-25.56-13.63-77.09-19.53-99-24.9-4.49-1.1-8.79-2.17-12.93-3.22l-4.9-1.26-7.1-1.87-4.61-1.24c-8.35-2.27-16.26-4.53-24.17-6.91-2.15-.65-4.31-1.3-6.48-2l-4.35-1.35-4.39-1.38-6.7-2.15c-23.37-7.54-50-16.8-90.2-30.39-37.56-12.7-63.58-20.65-85.44-25q-2.26-.45-4.47-.84c-1.47-.27-2.93-.51-4.37-.74s-2.86-.45-4.27-.65-2.81-.38-4.2-.55l-2.08-.23-2.24-.24-3.76-.33c-2.77-.21-5.52-.37-8.27-.46s-5.39-.13-8.11-.12c-1.34,0-2.69,0-4,.07h-.1c-4,.11-8.14.33-12.37.65l-2.3.19c-4.34.37-8.82.84-13.51,1.41a285.11,285.11,0,0,0-36.68,6.53l-1.08.28c-3.77,1-7.51,2.1-11.26,3.35l-1.77.6c-1.47.5-2.93,1-4.4,1.57l-2.09.79-1.48.59c-.76.3-1.52.6-2.28.92-1.93.79-3.86,1.63-5.81,2.51-.94.43-1.89.87-2.83,1.32q-2.72,1.27-5.47,2.68l-.16.08c-.91.46-1.82.94-2.73,1.42-1.67.88-3.34,1.8-5,2.75q-2.08,1.17-4.2,2.42c-.91.54-1.83,1.08-2.75,1.64-17.33,10.48-36.63,24.86-60.08,44.92-9.4,8-15.49,13.64-26.77,20.17q-2.42,1.4-5.17,2.87c-.83.44-1.69.88-2.57,1.33-1.42.73-2.93,1.49-4.52,2.26l-2.15,1c-2.69,1.28-5.61,2.62-8.8,4L72.87,563.34l-13.76,6.09-10,4.45-2,.89L29.8,582.42l-5.29,2.34-3.34,1.48-8.91,4-2.53,1.12L0,595.62V776.49c41.45-14.86,190.53-68.3,217.12-77.46C248.07,688.38,294.47,686.89,323.78,692.3Z"/><path class="cls-5" d="M1010.2,430.41l-1.22.08h0C1009.4,430.44,1009.8,430.43,1010.2,430.41Z"/><path class="cls-4" d="M240.81,731.59c27.32-9.79,62.94-16.34,100.53-5.53s168.07,48.65,207.24,57.3,87.83,8.17,125.57-12.19S872.55,663.8,896,654.14c20.57-8.47,42.66-40.23,42.66-40.23s91.48-130.47,96.31-137.76,8.88-31.67-7.31-41.45a30.11,30.11,0,0,0-15.92-4.34c9.65.12,15.93,7,16.27,15.24.38,9,.23,28.5-21.28,52.64S913,624.1,909.31,628.18s-10.55,8.33-14.19,9.32S685.29,740.58,655.54,753.41c-26.06,11.24-65.11,9.21-95.38,3.73-33.2-6-203-58.67-236.38-64.84-29.31-5.41-75.71-3.92-106.66,6.73C190.53,708.19,41.45,761.63,0,776.49V837S216.57,740.29,240.81,731.59Z"/><path class="cls-4" d="M913.76,510.19c12.51-13.29,54.79-55.6,63-63.2,10-9.29,18-12.29,18-12.29s-4-11.68-20.72-14.63a45.33,45.33,0,0,0-19.28.71c14.66.18,20.63,9.88,6.87,23.83-5.16,5.23-29.53,30-48.83,51.7S869,557,860.08,559.39s-45.36,19.94-56,28.41c22.91-11.31,53.32-19.11,62.77-22.48S901.24,523.48,913.76,510.19Z"/></g></g></svg>