<svg xmlns="http://www.w3.org/2000/svg" viewBox="0 0 467.92 388.91"><defs><style>.cls-1{fill:#ecccd7;}.cls-2{fill:#c66587;}.cls-3{fill:#952a4f;}.cls-4{fill:#b3325f;}</style></defs><title>Promote2</title><g id="Capa_2" data-name="Capa 2"><g id="Ilustraciones"><path class="cls-1" d="M79.43,44.55c-14.15,23.49,13.24,72.59,0,95.6S-5.17,177.25.3,212.64,104.48,244,114.68,277.17s-14,80.88,27.51,101.07,95.6-45.28,143.2-39.57,104.75,76.62,141.46,39.57-20.94-121.09-15.94-156,45-74.82,41.4-103.09S364,116.9,341.45,101.85,321.07,4.56,285.39.25,224.2,48.5,195.6,54.13,93.58,21.05,79.43,44.55Z"/><path class="cls-2" d="M188.37,62.38C185.91,75.87,201.11,160,209.19,167S467.92,19.12,467.92,19.12L188.37,62.38"/><path class="cls-3" d="M218.52,89c-2.46,13.5-17.41,71-9.33,78S467.92,19.12,467.92,19.12L218.52,89"/><path class="cls-4" d="M133.81,10.61c-3.23,3.94,44.16,49.87,54.56,51.77S467.92,19.12,467.92,19.12C446.68,12.42,137,6.68,133.81,10.61Z"/><path class="cls-4" d="M218.52,89c-1.27,7,77.69,81.85,87.6,83.66S465.43,32.76,467.92,19.12C467.92,19.12,219.79,82,218.52,89Z"/><path class="cls-4" d="M151,73.8c8.2,5.53,2.25,22.17-2.6,27.91s-34.55,7.15-42.29,5.74-11.94-19-6.18-24.82S142.84,68.26,151,73.8Z"/><path class="cls-4" d="M46.14,107.84c12.08,0,20.8,9,19,18.82s-18.42,30.73-26.43,32.15S15.63,154,15.63,146,34.07,107.84,46.14,107.84Z"/><path class="cls-4" d="M42.57,179.19c-12.12-1.27-22.5,7-23.47,16.26S37.31,221,49.92,222.35s24.2-9.34,23.84-18.67S54.7,180.47,42.57,179.19Z"/><path class="cls-4" d="M96,214.43c-5.87,7.21-3.33,22,1.73,24.91s40.86,4.91,46.78-1.31,7.85-21.27-3-24.91S101.87,207.22,96,214.43Z"/><path class="cls-4" d="M188.32,210.64c-7.43,9.6-2.61,23,9.36,26.24s38.61-3.73,41.34-11.76,0-17.76-5.83-20.93S195.75,201,188.32,210.64Z"/><path class="cls-4" d="M283.62,197.9c-5,3.35-6.58,20.36-1.78,24.57s37.48,5.19,42.14,1.7,9.38-20.54,1.86-25.58S288.6,194.54,283.62,197.9Z"/><path class="cls-4" d="M386.36,222.82c-7.91,2.17-12.05,8.11-10.67,17.46S396,261.45,404.9,261.45s16.67-8,16.67-18S394.27,220.66,386.36,222.82Z"/><path class="cls-4" d="M425.31,303.55a16.34,16.34,0,0,1,21.81,0c6.43,5.72-2.28,36.15-10.52,41.38s-21.66-3.05-23.29-8.73S419,309,425.31,303.55Z"/><path class="cls-4" d="M379.87,352.4c9.3,2.88,10.21,18.57,4.8,25.79s-31.35,11.35-37.81,7.22-8.27-18-5.28-21.34S370.56,349.53,379.87,352.4Z"/><path class="cls-4" d="M288.83,363.75c2.74,9.56-1,16.88-5.16,19.72-5.46,3.77-39.24-5.26-40.78-13.19s-.4-22.78,6.46-25.1S286.09,354.2,288.83,363.75Z"/><path class="cls-2" d="M151.68,72.41c6.91,4.74,1.9,19-2.19,23.92s-29.1,6.14-35.63,4.92S103.81,85,108.66,80,144.77,67.67,151.68,72.41Z"/><path class="cls-2" d="M48.74,182.24c-9.69-1-18,5.53-18.74,12.84s14.57,20.24,24.64,21.3S74,209,73.66,201.63,58.42,183.26,48.74,182.24Z"/><path class="cls-2" d="M51,109.08c9.9,0,17.05,7.38,15.58,15.43s-15.1,25.19-21.66,26.35S26,146.9,26,140.34,41.11,109.08,51,109.08Z"/><path class="cls-2" d="M107.25,214.78c-4.59,5.62-2.6,17.17,1.35,19.43s32,3.82,36.58-1,6.14-16.58-2.38-19.42S111.84,209.16,107.25,214.78Z"/><path class="cls-2" d="M198.1,209.81c-6,7.78-2.11,18.6,7.58,21.25s31.27-3,33.48-9.52,0-14.38-4.72-16.95S204.12,202,198.1,209.81Z"/><path class="cls-2" d="M293.44,197.67c-3.95,2.76-5.26,16.73-1.47,20.18s29.65,4.18,33.35,1.3,7.46-16.88,1.52-21S297.39,194.9,293.44,197.67Z"/><path class="cls-2" d="M394,225.88c-6.26,1.72-9.54,6.45-8.45,13.9s16.09,16.86,23.13,16.86,13.2-6.36,13.2-14.35S400.28,224.16,394,225.88Z"/><path class="cls-2" d="M426.9,303.61a13.48,13.48,0,0,1,17.51,0c5.16,4.43-1.83,28-8.44,32.06s-17.4-2.36-18.71-6.76S421.81,307.8,426.9,303.61Z"/><path class="cls-2" d="M381.21,351.2c7.76,2.4,8.52,15.5,4,21.52s-26.16,9.47-31.56,6-6.9-15-4.4-17.81S373.45,348.8,381.21,351.2Z"/><path class="cls-2" d="M289.15,362.72c2.17,7.44-.83,13.13-4.1,15.34-4.33,2.94-31.13-4.09-32.35-10.25s-.31-17.73,5.13-19.53S287,355.29,289.15,362.72Z"/></g></g></svg>