<svg xmlns="http://www.w3.org/2000/svg" viewBox="0 0 415.45 380.56"><defs><style>.cls-1{fill:#ccece1;}.cls-2{fill:#32b386;}.cls-3{fill:#2a9570;}</style></defs><title>Participate</title><g id="Capa_2" data-name="Capa 2"><g id="Ilustraciones"><path class="cls-1" d="M60.13,305.73c-38.4-12.56-72.57-67.14-55.72-109.18s81-63.07,66.32-113.47S86.22,1.61,130.33,4,170.07,83.08,237.8,87.66c57.43,3.88,138.51-10.52,164.74,36s13,137.22-44.62,164.77S239.52,240,185.8,263.29,115.18,323.74,60.13,305.73Z"/><path class="cls-2" d="M97.43,180.85c1.25,21.32,26.5,127.11,31.64,145.35s28.48,60.06,78.51,53.7S266.3,352,273.76,336s9-20.43,16.43-33.54,28-40.78,34.36-51.26,0-19-12.31-12.51-28.89,19.52-36.52,20.93-11.89-2.83-12.84-14-7.49-87.74-8.89-110.26-19.47-27.21-22.34,1.67-3.51,82.74-4,89.62-7.61,13.47-9.56-1.46-12.27-93.81-15.91-119.92-26.54-25.2-25.75.92,3.54,99.92,5,115-4.89,14-7.24.9S159,150.6,154,126.77c-5.68-26.88-25.36-25.53-22.25,4.16s9.66,92.89,11.12,102.42-4.13,17.23-9.23,2.07-15.85-46.27-18.29-59.53S96.18,159.53,97.43,180.85Z"/><path class="cls-3" d="M107.14,9c-2.24,8.42,4,27,12.59,34.2S132.94,47,134,41.4s4.13-29.76-3.7-37.41S109.38.61,107.14,9Z"/><path class="cls-3" d="M264.07,5.17c-7.92,7.06-15.58,33.3-15.58,41.2s10.46,10.88,17,7.12,19.39-20.85,21.6-37.44C288.08,8.37,272-1.9,264.07,5.17Z"/><path class="cls-3" d="M330.12,140.27c0,6.71,1.48,8.27,6.33,10.61s26.86-2.27,34.39-9.26.84-20.2-8.63-23.54S330.12,133.56,330.12,140.27Z"/><path class="cls-3" d="M13.22,160.58c3.24,6.6,38,8.5,44.72,6.21s6.69-6.69,1.72-11.85S27.6,137,19.61,138.39,10,154,13.22,160.58"/><path class="cls-3" d="M190,48.43c-4.08-6.18-10.68-22.8-2.38-30.55,6-5.62,15.13-2.16,16.82,3.9s-3.27,18.4-4.76,21.8C197.81,47.91,192.71,52.47,190,48.43Z"/><path class="cls-3" d="M280.5,90.15c1.14-5.72,7.86-20.6,14.54-22.94S308.36,69.45,308.36,78s-18.25,21.51-22.73,21.51S279.37,95.87,280.5,90.15Z"/><path class="cls-3" d="M74,71.48c-9.92-.13-17.5,10.13-12,17.19s25.72,14,29.82,15,6.8-3.75,5.06-8.2S83.9,71.61,74,71.48Z"/><path class="cls-3" d="M61,227c-4.92,3-20.43,7.83-26.93,4.28s-8-11.74-1.87-17.53,28.6-.46,31.83,3S65.91,224.05,61,227Z"/><path class="cls-3" d="M353.48,214.74c7.53-4.33,8.65-15.44,1.36-18.3s-25.6,1-29.15,2-3.44,5.86-.14,8.42S346,219.08,353.48,214.74Z"/><path class="cls-2" d="M30,143.37c-6.46,1.11-7.8,12.61-5.17,17.94s30.69,6.87,36.16,5,5.41-5.4,1.39-9.58S36.42,142.26,30,143.37Z"/><path class="cls-2" d="M78.27,79.76c-6.85-.09-12.1,7-8.3,11.88S87.75,101.3,90.58,102s4.7-2.59,3.5-5.67S85.13,79.85,78.27,79.76Z"/><path class="cls-2" d="M59.13,224.14c-3.86,2.41-15.9,6.54-20.79,4s-5.85-8.76-1-13.35,22-1.13,24.37,1.41S63,221.73,59.13,224.14Z"/><path class="cls-2" d="M110.77,15.85c-1.78,6.7,3.21,21.5,10,27.21s10.51,3,11.38-1.45,3.28-23.68-2.94-29.76S112.55,9.16,110.77,15.85Z"/><path class="cls-2" d="M189.88,47.87c-2.94-4.45-7-17.87-1-23.45,4.33-4.05,10.19-.12,11.4,4.25s-2.35,13.25-3.43,15.7C195.48,47.5,191.81,50.78,189.88,47.87Z"/><path class="cls-2" d="M262.21,15.35c-6.09,5.43-12,25.62-12,31.7s8,8.37,13,5.48,14.92-16.05,16.63-28.81C280.69,17.81,268.31,9.91,262.21,15.35Z"/><path class="cls-2" d="M282.43,91.22c.89-4.46,6.13-16.07,11.33-17.89s10.39,1.74,10.39,8.44-14.23,16.78-17.72,16.78S281.54,95.68,282.43,91.22Z"/><path class="cls-2" d="M330.12,141.37c0,5.27,1.16,6.5,5,8.33s21.08-1.78,27-7.27.66-15.85-6.78-18.48S330.12,136.1,330.12,141.37Z"/><path class="cls-2" d="M346.74,211.82c5.94-3.42,6.83-12.19,1.07-14.45s-20.21.77-23,1.6-2.72,4.63-.11,6.65S340.8,215.25,346.74,211.82Z"/><path class="cls-3" d="M113.14,228.94c.13,21.35,15.07,73.35,20.21,91.59s24.2,65.73,74.23,59.37,55-27.83,62.45-43.92,12.61-25.62,20-38.73,11.91-16.5,18.31-27,3.94-20.43-8.36-13.95S280.26,268,272.64,269.4s-14.07-3.3-15-14.45-.71-35.89-2.11-58.4-15.7-25.23-18.56,3.65-5.59,34-6.1,40.91-14.17,11.45-16.13-3.48-2.31-31-5.94-57.12-21-19-20.2,7.09-.1,30.7,1.33,45.73-14.78,18.4-17.14,5.3-7.25-31-12.29-54.82c-5.68-26.88-20.65-23.32-17.54,6.38s6.53,48.74,5.22,56.58-3.94,14.79-9.13,6.09a182.36,182.36,0,0,1-13.82-28C121.11,214.34,113,212.33,113.14,228.94Z"/></g></g></svg>