<svg xmlns="http://www.w3.org/2000/svg" viewBox="0 0 452.55 388.91"><defs><style>.cls-1{fill:#ecccd7;}.cls-2{fill:#c66587;}.cls-3{fill:#952a4f;}.cls-4{fill:#b3325f;}</style></defs><title>Recurso 11</title><g id="Capa_2" data-name="Capa 2"><g id="Ilustraciones"><path class="cls-1" d="M79.43,44.55c-14.15,23.49,13.24,72.59,0,95.6S-5.17,177.25.3,212.64,104.48,244,114.68,277.17s-14,80.88,27.51,101.07,95.6-45.28,143.2-39.57,104.75,76.62,141.46,39.57-20.94-121.09-15.94-156,45-74.82,41.4-103.09S364,116.9,341.45,101.85,321.07,4.56,285.39.25,224.2,48.5,195.6,54.13,93.58,21.05,79.43,44.55Z"/><path class="cls-2" d="M172.64,90.63c-2.23,12.19,11.51,88.19,18.81,94.55S425.25,51.54,425.25,51.54L172.64,90.63"/><path class="cls-3" d="M199.89,114.68c-2.23,12.19-15.74,64.14-8.44,70.5S425.25,51.54,425.25,51.54L199.89,114.68"/><path class="cls-4" d="M123.34,43.85c-2.92,3.56,39.9,45.07,49.3,46.78S425.25,51.54,425.25,51.54C406.05,45.49,126.26,40.3,123.34,43.85Z"/><path class="cls-4" d="M199.89,114.68c-1.15,6.28,70.2,74,79.16,75.59S423,63.87,425.25,51.54C425.25,51.54,201,108.4,199.89,114.68Z"/><path class="cls-4" d="M138.91,101c7.41,5,2,20-2.35,25.22s-31.22,6.47-38.22,5.19-10.78-17.14-5.58-22.43S131.5,96,138.91,101Z"/><path class="cls-4" d="M44.12,131.71c10.91,0,18.79,8.13,17.17,17s-16.64,27.77-23.87,29.05-20.87-4.37-20.87-11.6S33.21,131.71,44.12,131.71Z"/><path class="cls-4" d="M40.9,196.19c-11-1.16-20.34,6.33-21.22,14.68S36.14,234,47.54,235.19s21.86-8.45,21.54-16.88S51.85,197.34,40.9,196.19Z"/><path class="cls-4" d="M89.17,228c-5.3,6.51-3,19.89,1.56,22.51S127.66,255,133,249.36s7.09-19.23-2.75-22.51S94.48,221.52,89.17,228Z"/><path class="cls-4" d="M172.6,224.6c-6.72,8.68-2.36,20.75,8.46,23.71s34.88-3.36,37.35-10.62.05-16.05-5.27-18.92S179.31,215.93,172.6,224.6Z"/><path class="cls-4" d="M258.71,213.09c-4.5,3-5.94,18.4-1.61,22.2S291,240,295.18,236.83s8.48-18.56,1.68-23.12S263.22,210.05,258.71,213.09Z"/><path class="cls-4" d="M351.55,235.61c-7.14,2-10.89,7.32-9.65,15.78s18.37,19.13,26.4,19.13,15.07-7.22,15.07-16.28S358.7,233.65,351.55,235.61Z"/><path class="cls-4" d="M386.74,308.56a14.77,14.77,0,0,1,19.71,0c5.81,5.17-2.05,32.67-9.5,37.39s-19.58-2.76-21.05-7.88S381,313.44,386.74,308.56Z"/><path class="cls-4" d="M345.68,352.7c8.41,2.6,9.23,16.78,4.35,23.31s-28.33,10.25-34.18,6.52-7.47-16.28-4.76-19.28S337.28,350.11,345.68,352.7Z"/><path class="cls-4" d="M263.42,363c2.47,8.63-.94,15.25-4.66,17.82-4.94,3.41-35.46-4.75-36.86-11.92s-.35-20.59,5.85-22.68S261,354.32,263.42,363Z"/><path class="cls-2" d="M139.49,99.7c6.24,4.28,1.71,17.17-2,21.61s-26.3,5.54-32.2,4.45-9.08-14.69-4.7-19.22S133.24,95.41,139.49,99.7Z"/><path class="cls-2" d="M46.47,198.94c-8.76-.92-16.23,5-16.93,11.6S42.7,228.83,51.8,229.79,69.25,223.13,69,216.46,55.22,199.87,46.47,198.94Z"/><path class="cls-2" d="M48.52,132.83c8.95,0,15.4,6.67,14.08,13.94S49,169.54,43,170.59,25.91,167,25.91,161.08,39.57,132.83,48.52,132.83Z"/><path class="cls-2" d="M99.34,228.35c-4.15,5.08-2.35,15.51,1.22,17.55s28.87,3.45,33.05-.93,5.55-15-2.15-17.55S103.48,223.27,99.34,228.35Z"/><path class="cls-2" d="M181.43,223.86c-5.44,7-1.91,16.8,6.85,19.19s28.26-2.72,30.26-8.6,0-13-4.27-15.31S186.87,216.83,181.43,223.86Z"/><path class="cls-2" d="M267.58,212.88c-3.57,2.5-4.74,15.13-1.32,18.24s26.79,3.78,30.13,1.18,6.75-15.26,1.38-19S271.15,210.38,267.58,212.88Z"/><path class="cls-2" d="M358.47,238.37c-5.66,1.56-8.62,5.84-7.64,12.57s14.54,15.23,20.9,15.23,11.94-5.75,11.94-13S364.13,236.82,358.47,238.37Z"/><path class="cls-2" d="M388.18,308.62a12.18,12.18,0,0,1,15.83,0c4.66,4-1.65,25.31-7.63,29s-15.72-2.13-16.9-6.1S383.59,312.4,388.18,308.62Z"/><path class="cls-2" d="M346.9,351.62c7,2.17,7.7,14,3.62,19.45s-23.64,8.55-28.52,5.44-6.23-13.59-4-16.09S339.88,349.45,346.9,351.62Z"/><path class="cls-2" d="M263.71,362c2,6.72-.75,11.86-3.7,13.86-3.92,2.66-28.13-3.69-29.24-9.27s-.28-16,4.64-17.64S261.74,355.31,263.71,362Z"/></g></g></svg>