<svg xmlns="http://www.w3.org/2000/svg" viewBox="0 0 267.04 283.73"><defs><style>.cls-1{fill:#eecd9a;}.cls-2{fill:#b9802c;}.cls-3{fill:#6f4d1b;}.cls-4{fill:#946723;}</style></defs><title>Merienda</title><g id="Capa_2" data-name="Capa 2"><g id="Anteriores"><path class="cls-1" d="M68.07,108.59c-7.66-1.55-16.07-1.87-21.8,1.64-5.16,3.16-8,9.81-8.32,19.78-1.09,30.53,12.17,49.14,23.49,59.37A70.45,70.45,0,0,0,83.87,203C77.62,173.65,71.36,136.26,68.07,108.59Z"/><path class="cls-1" d="M238,54.25C220.69,34,200,58.53,180.13,40.74S149.54.14,129.94,0C97.34-.23,96.13,25.38,75.4,39.77s-39.89-1-65.11,25.09c-20.8,21.54-4.1,55.31-1.3,76.29,3.48,26.14-14.49,33.56-5.4,51.54s22.55,11.81,46.93,39.46c17,19.34,3.2,45.7,28.29,50.8,23.86,4.85,32.71-14.3,66.45-15s42.25,10.53,56.14,3.08c18.49-9.92,12.25-34.83,31.89-55.23,20-20.74,33.68-16,33.75-38.13.12-35.79-24-30.76-23.83-66.92C243.31,91.16,251.11,69.68,238,54.25ZM180.1,249.78c-6.38,6.38-71.43,3.82-81.81,0-2.48-.91-6-11.41-9.88-26.9a87.09,87.09,0,0,1-38.85-20.37c-19.93-18-30.34-44-29.3-73.13.59-16.3,6.24-27.84,16.82-34.28,8.9-5.43,19.58-6,29.15-4.77-.9-11.87-.72-19.62,1-20.4,59.83-26.79,134.14-7.65,141.79,0S186.48,243.4,180.1,249.78Z"/><path class="cls-2" d="M67.27,69.93c-1.76.78-1.94,8.53-1,20.4C56.66,89.1,46,89.67,37.08,95.1c-10.58,6.44-16.23,18-16.82,34.28-1,29.13,9.37,55.1,29.3,73.13a87.09,87.09,0,0,0,38.85,20.37c3.85,15.49,7.4,26,9.88,26.9,10.38,3.82,75.43,6.38,81.81,0s36.62-172.2,29-179.85S127.1,43.14,67.27,69.93ZM62.71,190.47h0c-5-1.18-16.94-18.8-20.74-26.7S35.51,143,35.51,131c0-10,3.32-20.36,10.69-24.59,9.42-5.41,21.34-2,21.34-2l.53,4.2c3.29,27.67,9.55,65.06,15.8,94.42a70.45,70.45,0,0,1-22.43-13.63C61.85,189.75,62.28,190.11,62.71,190.47ZM114,87.53c-9.17-.65-24.72-2-28.84-4.48-2.64-1.57-7.59-5.68-4.29-4.81,2.08.55,8.3,2.62,26.91,4.7,20,2.25,39,.46,39,1.28C146.77,87.27,123.15,88.19,114,87.53Zm63.17,158.92c-2.18,4.89-33.82,4.62-33.84,2.45,0-1,19.19-.59,27-5.93s15.63-31.29,15.67-29C186.06,217,180.12,239.74,177.14,246.45ZM198.67,72a2.92,2.92,0,0,1-.41.31l-.13.08a5.15,5.15,0,0,1-.48.27l-.13.07c-.23.11-.47.23-.74.34l-.19.08-.73.28-.24.09c-.33.12-.68.23-1.05.35l-.17.06-1,.31-.33.1c-.43.12-.86.25-1.33.37h0c-.46.13-.94.25-1.44.37l-.4.1-1.38.33-.21,0-.08,0h0a270.56,270.56,0,0,1-53.36,5.83c-20.42,0-37.84-1.94-48-4.17h0L85.59,77l-.31-.07-.94-.24L84,76.58l-.92-.25-.21-.06-1-.3-.25-.08-.69-.23-.26-.1-.7-.26-.11,0-.68-.3L79,74.87c-.16-.07-.3-.15-.43-.22l-.16-.09L78,74.29l0,0c-.13-.1-.24-.2-.34-.29a.27.27,0,0,0-.07-.08,1.37,1.37,0,0,1-.15-.21l-.05-.08a.8.8,0,0,1-.08-.28c-.18-3,34.7-12.8,60.43-12.26s60.78,7,61.33,10.3a.48.48,0,0,1-.05.28.3.3,0,0,1,0,.08,1.4,1.4,0,0,1-.2.26Z"/><path class="cls-3" d="M79.93,75.3l-.11,0Z"/><path class="cls-3" d="M78.54,74.65l-.16-.09Z"/><path class="cls-3" d="M80.89,75.66l-.26-.1Z"/><path class="cls-3" d="M81.83,76l-.25-.08Z"/><path class="cls-3" d="M79.14,75,79,74.87Z"/><path class="cls-3" d="M86.81,77.26c10.18,2.23,27.6,4.17,48,4.17a270.56,270.56,0,0,0,53.36-5.83,251,251,0,0,0-52.55-6.33C111.21,69.16,86.86,77.24,86.81,77.26Z"/><path class="cls-3" d="M199,71.65a.3.3,0,0,1,0,.08A.3.3,0,0,0,199,71.65Z"/><path class="cls-3" d="M78,74.29l0,0Z"/><path class="cls-3" d="M83.05,76.33l-.21-.06Z"/><path class="cls-3" d="M77.59,74a.27.27,0,0,0-.07-.08A.27.27,0,0,1,77.59,74Z"/><path class="cls-3" d="M77.37,73.69l-.05-.08Z"/><path class="cls-3" d="M197.65,72.69l-.13.07Z"/><path class="cls-3" d="M194.57,73.9l-.17.06Z"/><path class="cls-3" d="M195.86,73.46l-.24.09Z"/><path class="cls-3" d="M196.78,73.1l-.19.08Z"/><path class="cls-3" d="M198.26,72.34l-.13.08Z"/><path class="cls-3" d="M198.71,72l0,0Z"/><path class="cls-3" d="M188.48,75.54l-.21,0Z"/><path class="cls-3" d="M85.59,77l-.31-.07Z"/><path class="cls-3" d="M193.37,74.27l-.33.1Z"/><path class="cls-3" d="M84.34,76.67,84,76.58Z"/><path class="cls-3" d="M190.26,75.11l-.4.1Z"/><path class="cls-3" d="M191.71,74.74h0Z"/><path class="cls-4" d="M199,71.65a.48.48,0,0,0,.05-.28c-.55-3.29-35.59-9.75-61.33-10.3S77.06,70.28,77.24,73.33a.8.8,0,0,0,.08.28l.05.08a1.37,1.37,0,0,0,.15.21.27.27,0,0,1,.07.08c.1.09.21.19.34.29l0,0,.42.27.16.09c.13.07.27.15.43.22l.17.09.68.3.11,0,.7.26.26.1.69.23.25.08,1,.3.21.06.92.25.37.09.94.24.31.07,1.22.28h0s24.4-8.1,48.83-8a251,251,0,0,1,52.55,6.33h0l.08,0,.21,0,1.38-.33.4-.1c.5-.12,1-.24,1.44-.37h0c.47-.12.9-.25,1.33-.37l.33-.1,1-.31.17-.06c.37-.12.72-.23,1.05-.35l.24-.09.73-.28.19-.08c.27-.11.51-.23.74-.34l.13-.07a5.15,5.15,0,0,0,.48-.27l.13-.08a2.92,2.92,0,0,0,.41-.31l0,0a1.4,1.4,0,0,0,.2-.26A.3.3,0,0,0,199,71.65Z"/><path class="cls-4" d="M38,130c.36-10,3.16-16.62,8.32-19.78,5.73-3.51,14.14-3.19,21.8-1.64l-.53-4.2s-11.92-3.42-21.34,2C38.83,110.61,35.51,121,35.51,131c0,12,2.63,24.91,6.43,32.8s15.75,25.52,20.74,26.7h0c-.43-.36-.86-.72-1.27-1.09C50.12,179.15,36.86,160.54,38,130Z"/><path class="cls-1" d="M146.77,84.22c0-.82-19,1-39-1.28-18.61-2.08-24.83-4.15-26.91-4.7-3.3-.87,1.65,3.24,4.29,4.81,4.12,2.46,19.67,3.83,28.84,4.48S146.77,87.27,146.77,84.22Z"/><path class="cls-4" d="M170.33,243c-7.84,5.34-27.05,4.9-27,5.93,0,2.17,31.66,2.44,33.84-2.45,3-6.71,8.92-29.48,8.86-32.52C186,211.68,178.17,237.62,170.33,243Z"/></g></g></svg>